<?xml version="1.0" standalone="no"?>
<!DOCTYPE svg PUBLIC "-//W3C//DTD SVG 20010904//EN"
 "http://www.w3.org/TR/2001/REC-SVG-20010904/DTD/svg10.dtd">
<svg version="1.0" xmlns="http://www.w3.org/2000/svg"
 width="200.000000pt" height="200.000000pt" viewBox="0 0 200.000000 200.000000"
 preserveAspectRatio="xMidYMid meet">

<g transform="translate(0.000000,200.000000) scale(0.100000,-0.100000)"
fill="#000000" stroke="none">
<path d="M828 1573 c-18 -5 -31 -43 -22 -67 8 -21 21 -20 33 1 5 10 13 15 17
11 4 -4 -3 -15 -15 -25 -30 -25 -111 -217 -118 -279 -4 -38 0 -66 16 -110 13
-32 27 -64 33 -71 8 -10 5 -13 -10 -13 -23 0 -27 -4 -35 -41 l-7 -26 239 -7
c279 -9 331 -4 331 29 0 12 -9 30 -20 40 -18 16 -22 17 -69 1 -27 -9 -59 -16
-70 -16 -41 0 -20 18 42 35 71 20 107 42 127 79 7 14 19 26 27 26 7 0 13 11
13 26 0 21 -3 24 -22 19 -22 -6 -22 -5 -3 7 21 14 31 38 16 38 -4 0 -6 12 -3
28 l5 27 -21 -25 c-12 -14 -21 -20 -22 -14 0 6 3 14 7 18 4 3 8 15 10 25 2 15
-3 17 -24 13 -21 -4 -25 -2 -20 12 4 9 2 28 -4 42 -7 21 -6 31 6 44 17 19 9
35 -10 20 -15 -13 -41 -4 -49 17 -9 21 3 31 14 13 6 -8 10 -10 10 -4 0 18 -23
34 -35 24 -6 -5 -16 -5 -25 0 -13 8 -12 10 3 10 9 0 17 5 17 11 0 5 -4 8 -8 5
-17 -10 -62 -14 -62 -6 0 5 16 14 35 21 19 7 35 16 35 20 0 22 -223 27 -273 5
-32 -13 -34 -13 -46 15 -7 16 -16 28 -19 28 -4 -1 -14 -3 -24 -6z m129 -75
c-3 -8 -6 -5 -6 6 -1 11 2 17 5 13 3 -3 4 -12 1 -19z m83 -4 c0 -17 -22 -14
-28 4 -2 7 3 12 12 12 9 0 16 -7 16 -16z m44 -5 c-8 -14 -24 -10 -24 6 0 9 6
12 15 9 8 -4 12 -10 9 -15z m-184 -8 c0 -14 -30 -35 -38 -26 -4 4 -1 10 6 12
6 3 10 9 6 14 -3 5 2 9 10 9 9 0 16 -4 16 -9z m135 -51 c-3 -5 -12 -10 -18
-10 -7 0 -6 4 3 10 19 12 23 12 15 0z m-15 -46 c0 -8 4 -13 9 -10 5 4 7 -3 4
-14 -6 -22 -23 -38 -23 -21 0 6 -7 11 -15 11 -8 0 -15 5 -15 11 0 6 9 8 20 4
18 -6 19 -4 10 20 -7 17 -7 24 0 20 6 -3 10 -13 10 -21z m-110 -20 c0 -20 4
-25 16 -20 8 3 12 2 9 -4 -3 -6 -17 -10 -30 -10 -13 0 -27 4 -30 10 -3 5 0 7
8 4 11 -4 13 1 10 20 -3 16 -1 26 6 26 6 0 11 -12 11 -26z m306 -13 c-12 -19
-24 -12 -19 10 4 13 9 17 15 11 6 -6 7 -15 4 -21z m-219 -33 c-3 -8 -6 -5 -6
6 -1 11 2 17 5 13 3 -3 4 -12 1 -19z m-140 -22 l32 -12 -42 -11 c-38 -10 -70
-7 -39 4 18 7 4 23 -21 23 -18 0 -19 2 -7 10 8 5 22 7 30 4 8 -4 29 -12 47
-18z m148 -46 c3 -5 1 -10 -4 -10 -6 0 -11 5 -11 10 0 6 2 10 4 10 3 0 8 -4
11 -10z m-180 -10 c3 -5 1 -10 -4 -10 -6 0 -11 5 -11 10 0 6 2 10 4 10 3 0 8
-4 11 -10z m153 -32 c2 -8 -6 -18 -16 -20 -15 -4 -18 -1 -14 19 5 26 25 26 30
1z m179 8 c-3 -8 -1 -16 6 -19 6 -2 3 -6 -6 -10 -22 -8 -36 21 -16 34 19 12
22 11 16 -5z m9 -52 c-4 -12 -1 -14 14 -9 15 5 18 3 14 -10 -7 -17 -35 -35
-56 -35 -8 0 -6 4 5 11 12 7 15 17 11 35 -4 15 -2 24 6 24 7 0 10 -7 6 -16z
m-191 -14 c3 -5 1 -10 -4 -10 -6 0 -11 5 -11 10 0 6 2 10 4 10 3 0 8 -4 11
-10z m95 -55 c12 -4 16 -12 13 -25 -6 -24 -58 -28 -70 -6 -4 8 -12 15 -18 15
-5 0 -11 3 -12 8 -4 10 61 16 87 8z m-244 -112 c-7 -7 -26 7 -26 19 0 6 6 6
15 -2 9 -7 13 -15 11 -17z"/>
<path d="M1237 1550 l-29 -30 30 -6 c17 -4 33 -12 36 -20 9 -24 26 -15 26 14
0 40 -11 72 -24 72 -6 0 -24 -14 -39 -30z"/>
<path d="M1353 859 c-48 -24 -99 -77 -119 -125 -37 -88 -1 -217 77 -273 56
-41 117 -60 130 -40 15 23 6 42 -26 52 -45 15 -81 43 -105 82 -33 54 -23 65
60 65 68 0 70 1 70 25 0 23 -3 24 -72 27 -88 4 -94 15 -46 79 23 29 48 49 75
58 40 14 54 32 46 59 -7 18 -43 15 -90 -9z"/>
<path d="M270 645 l0 -225 105 0 c105 0 105 0 140 33 51 47 60 130 19 171 -14
15 -14 20 5 59 25 52 26 78 5 123 -27 57 -46 64 -166 64 l-108 0 0 -225z m205
150 c28 -27 30 -42 14 -78 -16 -35 -48 -49 -105 -45 l-49 3 -3 59 c-4 83 -2
86 63 86 46 0 60 -4 80 -25z m-22 -184 c15 -6 32 -22 38 -35 28 -62 -31 -113
-116 -100 l-45 6 0 62 c0 35 2 65 5 67 9 10 92 9 118 0z"/>
<path d="M690 708 c-74 -38 -102 -133 -64 -215 41 -85 165 -106 240 -41 27 24
32 33 23 44 -16 20 -27 18 -61 -11 -34 -29 -57 -31 -102 -10 -91 43 -81 157
17 194 31 12 77 -2 84 -26 2 -6 -21 -30 -51 -53 -57 -43 -66 -59 -43 -78 10
-8 33 5 95 54 l82 66 -16 30 c-17 33 -82 67 -129 68 -17 0 -51 -10 -75 -22z"/>
<path d="M1470 706 c0 -21 8 -29 41 -43 91 -36 86 -150 -8 -190 -23 -9 -33
-20 -33 -34 0 -19 4 -21 40 -16 21 3 52 14 68 25 28 21 29 21 48 2 19 -19 98
-42 109 -32 16 16 2 44 -29 57 -46 19 -66 50 -66 102 0 50 24 80 70 90 23 4
30 11 30 30 0 13 -6 26 -13 29 -19 7 -67 -13 -95 -39 -16 -15 -27 -18 -36 -12
-50 37 -66 45 -94 51 -30 6 -32 4 -32 -20z"/>
<path d="M920 715 c0 -3 7 -34 15 -68 8 -34 19 -87 25 -119 15 -76 45 -108
103 -108 45 0 80 22 91 57 12 40 46 204 46 223 0 15 -7 20 -28 20 -27 0 -28
-1 -50 -111 -22 -117 -33 -139 -63 -139 -26 0 -35 23 -54 128 -20 119 -22 122
-56 122 -16 0 -29 -2 -29 -5z"/>
</g>
</svg>
